<?xml version="1.0" standalone="no"?>
<!DOCTYPE svg PUBLIC "-//W3C//DTD SVG 20010904//EN"
 "http://www.w3.org/TR/2001/REC-SVG-20010904/DTD/svg10.dtd">
<svg version="1.0" xmlns="http://www.w3.org/2000/svg"
 width="300.000000pt" height="300.000000pt" viewBox="0 0 300.000000 300.000000"
 preserveAspectRatio="xMidYMid meet">

<g transform="translate(0.000000,300.000000) scale(0.100000,-0.100000)"
fill="#000000" stroke="none">
<path d="M934 1819 c-52 -83 -90 -200 -101 -311 -5 -46 -4 -48 20 -48 24 0 24
2 29 93 6 99 34 189 82 266 20 32 23 41 11 41 -8 0 -26 -19 -41 -41z"/>
<path d="M1973 1823 c13 -21 32 -59 41 -85 12 -32 23 -45 32 -41 19 7 19 9
-24 88 -21 39 -46 72 -56 73 -15 3 -14 -2 7 -35z"/>
<path d="M1656 1807 c-9 -33 -7 -37 9 -31 16 7 20 39 6 48 -5 3 -11 -4 -15
-17z"/>
<path d="M1346 1795 c-10 -26 -7 -35 9 -35 17 0 19 18 6 38 -7 11 -10 10 -15
-3z"/>
<path d="M1648 1683 c-9 -10 -23 -50 -31 -90 l-16 -72 39 -83 39 -83 1 47 c0
50 7 78 20 78 4 0 11 -52 15 -115 4 -63 11 -117 15 -120 4 -3 16 29 25 70 9
41 20 75 25 75 5 0 14 -16 20 -36 14 -42 22 -38 29 18 6 40 31 67 31 33 0 -14
3 -15 15 -5 21 17 21 104 0 96 -20 -7 -45 20 -45 52 0 15 -4 33 -9 41 -7 11
-10 9 -16 -8 -9 -30 -43 -27 -51 4 -7 28 -24 24 -24 -6 0 -12 -5 -19 -12 -17
-8 3 -17 34 -22 71 -9 69 -21 81 -48 50z"/>
<path d="M1336 1678 c-3 -7 -6 -22 -8 -32 -5 -30 -28 -32 -28 -2 0 13 -4 27
-9 30 -10 7 -21 -17 -21 -45 0 -12 -7 -19 -19 -19 -47 0 -53 -148 -11 -235 24
-49 47 -69 92 -80 23 -6 29 -3 39 19 13 27 34 35 41 14 4 -12 48 51 48 69 0 6
7 16 14 23 18 14 51 109 42 118 -4 3 -13 -4 -22 -16 -8 -12 -19 -22 -24 -22
-9 0 -11 6 -30 79 -11 42 -12 43 -26 22 -24 -33 -33 -25 -36 31 -2 41 -7 54
-21 56 -9 2 -19 -2 -21 -10z"/>
<path d="M1076 1563 c-15 -15 -36 -76 -35 -102 1 -33 22 -94 35 -98 5 -2 14 7
19 19 6 15 20 24 38 26 24 3 28 7 23 25 -3 12 -6 36 -6 54 0 24 -4 31 -14 27
-9 -4 -20 6 -31 25 -17 34 -18 35 -29 24z"/>
<path d="M1170 1359 c0 -32 13 -79 22 -79 19 0 18 29 -1 61 -12 20 -21 27 -21
18z"/>
<path d="M1651 1223 c0 -10 4 -27 9 -38 7 -17 9 -15 9 12 1 17 -3 35 -9 38 -5
3 -10 -2 -9 -12z"/>
<path d="M920 1212 c0 -5 17 -35 38 -68 70 -107 186 -195 308 -235 38 -12 77
-26 86 -30 23 -12 225 -12 232 0 3 4 23 11 44 15 61 9 196 82 256 137 51 46
136 159 136 180 0 21 -18 5 -60 -52 -49 -68 -140 -144 -223 -188 -168 -88
-401 -79 -574 23 -67 40 -160 126 -199 186 -25 37 -44 51 -44 32z"/>
<path d="M1340 1175 c0 -52 14 -60 24 -14 9 47 7 59 -9 59 -11 0 -15 -12 -15
-45z"/>
</g>
</svg>
