<?xml version="1.0" standalone="yes"?>
<svg xmlns="http://www.w3.org/2000/svg" width="300" height="300">
<path style="fill:#ffffff; stroke:none;" d="M0 0L0 300L300 300L300 0L0 0z"/>
<path style="fill:#ecc6a9; stroke:none;" d="M124 90L124 91L139 88L124 90z"/>
<path style="fill:#e5904b; stroke:none;" d="M91 121L92 121L99 114L94 123L95 123C117.654 80.612 176.048 81.7743 199 123L200 123L195 114L202 121C201.652 109.322 184.4 97.8937 175 93.4892C145.495 79.6644 104.688 89.2824 91 121z"/>
<path style="fill:#ecc6a9; stroke:none;" d="M153 87L153 88L160 88L153 87M160 88L160 89L164 89L160 88M164 89L164 90L167 90L164 89M167 90L167 91L170 91L167 90M121.667 91.3333L122.333 91.6667L121.667 91.3333M138 91L138 92L157 92L138 91M170.667 91.3333L171.333 91.6667L170.667 91.3333M119.667 92.3333L120.333 92.6667L119.667 92.3333M133 92L133 93L137 93L133 92M157 92L157 93L161 93L157 92M172 92L172 93L175 93L172 92M117.667 93.3333L118.333 93.6667L117.667 93.3333M129 93L129 94L133 94L129 93M161 93L161 94L165 94L161 93M175.667 93.3333L176.333 93.6667L175.667 93.3333M115.667 94.3333L116.333 94.6667L115.667 94.3333M127.667 94.3333L128.333 94.6667L127.667 94.3333M165.667 94.3333L166.333 94.6667L165.667 94.3333M177 94L178 95L177 94M114 95L115 96L114 95M124.667 95.3333L125.333 95.6667L124.667 95.3333M167 95L167 96L170 96L167 95M178.667 95.3333L179.333 95.6667L178.667 95.3333M112.667 96.3333L113.333 96.6667L112.667 96.3333M122.667 96.3333L123.333 96.6667L122.667 96.3333M170.667 96.3333L171.333 96.6667L170.667 96.3333M180.667 96.3333L181.333 96.6667L180.667 96.3333M110.667 97.3333L111.333 97.6667L110.667 97.3333M120.667 97.3333L121.333 97.6667L120.667 97.3333M172.667 97.3333L173.333 97.6667L172.667 97.3333M182 97L183 98L182 97M109 98L110 99L109 98M118.667 98.3333L119.333 98.6667L118.667 98.3333M174.667 98.3333L175.333 98.6667L174.667 98.3333M184 98L185 99L184 98M108 99L109 100L108 99M116.667 99.3333L117.333 99.6667L116.667 99.3333M176.667 99.3333L177.333 99.6667L176.667 99.3333M185 99L186 100L185 99M106.667 100.333L107.333 100.667L106.667 100.333M115 100L116 101L115 100M178 100L179 101L178 100M186 100L187 101L186 100M105 101L106 102L105 101M113.667 101.333L114.333 101.667L113.667 101.333M179.667 101.333L180.333 101.667L179.667 101.333M187 101L188 102L187 101M104 102L105 103L104 102M112 102L113 103L112 102M181 102L182 103L181 102M189 102L190 103L189 102M103 103L104 104L103 103M110.667 103.333L111.333 103.667L110.667 103.333M182 103L183 104L182 103M190 103L191 104L190 103M102 104L103 105L102 104M109 104L110 105L109 104M183.667 104.333L184.333 104.667L183.667 104.333M191 104L192 105L191 104M101 105L102 106L101 105M108 105L109 106L108 105M185 105L186 106L185 105M192 105L193 106L192 105M100 106L101 107L100 106M107 106L108 107L107 106M186 106L187 107L186 106M193 106L194 107L193 106M99 107L100 108L99 107M106 107L107 108L106 107M137 107L137 108L140 108L137 107z"/>
<path style="fill:#83acd6; stroke:none;" d="M103 151L104 151L107 143L112 148L114 148C117.719 138.026 121.447 125.842 134 125L135 118L155 139L168 116C168.3 121.432 184.023 138.739 169 130L172 143L174 138L177 144L179 144L183 140L185 150L189 151C196.328 133.033 173.048 112.348 158 108.478C128.805 100.971 105.248 122.556 103 151z"/>
<path style="fill:#ecc6a9; stroke:none;" d="M153 107L153 108L156 108L153 107M187 107L188 108L187 107M194.333 107.667L194.667 108.333L194.333 107.667M98 108L99 109L98 108M105 108L106 109L105 108M134 108L135 109L134 108M158 108L159 109L158 108M188 108L189 109L188 108M97.3333 109.667L97.6667 110.333L97.3333 109.667M104 109L105 110L104 109M130.667 109.333L131.333 109.667L130.667 109.333M161.667 109.333L162.333 109.667L161.667 109.333M189 109L190 110L189 109M195 109L196 110L195 109M103 110L104 111L103 110M128 110L129 111L128 110M164 110L165 111L164 110M190 110L191 111L190 110M196 110L197 111L196 110M96 111L97 112L96 111M102 111L103 112L102 111M126 111L127 112L126 111M166 111L167 112L166 111M191 111L192 112L191 111M197 111L198 112L197 111M95 112L96 113L95 112M101 112L102 113L101 112M168 112L169 113L168 112M192.333 112.667L192.667 113.333L192.333 112.667M198 112L199 113L198 112M94.3333 113.667L94.6667 114.333L94.3333 113.667M123 113L124 114L123 113z"/>
<path style="fill:#8e7367; stroke:none;" d="M83 154L88 154C88 138.582 91.8026 127.537 99 114C86.4157 117.723 83.0012 142.926 83 154z"/>
<path style="fill:#ecc6a9; stroke:none;" d="M100 114L101 115L100 114M121 114L122 115L121 114M171 114L172 115L171 114M193 114L194 115L193 114z"/>
<path style="fill:#8e7367; stroke:none;" d="M195 114L203 131L206 130C204.322 123.867 201.555 116.016 195 114z"/>
<path style="fill:#ecc6a9; stroke:none;" d="M199 114L200 115L199 114M93 115L94 116L93 115M99 115L100 116L99 115M120 115L121 116L120 115M172 115L173 116L172 115M194 115L195 116L194 115M200.333 115.667L200.667 116.333L200.333 115.667M98.3333 116.667L98.6667 117.333L98.3333 116.667M119 116L120 117L119 116z"/>
<path style="fill:#8e7367; stroke:none;" d="M166 116L164 124L169 123L168 116L166 116z"/>
<path style="fill:#ecc6a9; stroke:none;" d="M92 117L93 118L92 117M118 117L119 118L118 117M195 117L196 118L195 117M201 117L202 118L201 117M91.3333 118.667L91.6667 119.333L91.3333 118.667M97 118L98 119L97 118z"/>
<path style="fill:#8e7367; stroke:none;" d="M135 118L134 125L137 125L135 118z"/>
<path style="fill:#ecc6a9; stroke:none;" d="M176 118L177 119L176 118M196 118L197 119L196 118M177 119L178 120L177 119M202 119L203 120L202 119M90 120L87 128L88 128L90 120M96 120L97 121L96 120M178 120L179 121L178 120M197 120L198 121L197 120M203 120L204 124L205 124L203 120M95.3333 121.667L95.6667 122.333L95.3333 121.667M198.333 121.667L198.667 122.333L198.333 121.667z"/>
<path style="fill:#e5904b; stroke:none;" d="M90 122L91 123L90 122M203 122L204 123L203 122z"/>
<path style="fill:#ecc6a9; stroke:none;" d="M94 123L92 129L93 129L94 123M112 123L113 124L112 123z"/>
<path style="fill:#e5904b; stroke:none;" d="M163 132L169 129L169 123C163.931 123.843 163.386 127.326 163 132z"/>
<path style="fill:#ecc6a9; stroke:none;" d="M169 123L173 133L171 123L169 123M199.333 123.667L199.667 124.333L199.333 123.667z"/>
<path style="fill:#e5904b; stroke:none;" d="M89 124L90 125L89 124M93 124L94 125L93 124z"/>
<path style="fill:#ecc6a9; stroke:none;" d="M111 124L112 125L111 124M163 124L160 128L163 128L164 128L163 124z"/>
<path style="fill:#ffffff; stroke:none;" d="M170 124C170.431 137.273 182.832 130.006 170 124z"/>
<path style="fill:#e5904b; stroke:none;" d="M200.333 124.667L200.667 125.333L200.333 124.667M204 124L205 128L206 128L204 124z"/>
<path style="fill:#ecc6a9; stroke:none;" d="M128 125L127 131L128 131L128 128L129 128L133 131L134 125L133 125L130 130L130 125L128 125z"/>
<path style="fill:#ffffff; stroke:none;" d="M129 126L130 130L133 125L129 126z"/>
<path style="fill:#e5904b; stroke:none;" d="M134 125L133 130L138 131L138 125L134 125z"/>
<path style="fill:#ecc6a9; stroke:none;" d="M138 125L139 126L138 125M173 125L174 126L173 125M182 125L183 126L182 125M205 125L206 126L205 125z"/>
<path style="fill:#e5904b; stroke:none;" d="M88 126L89 127L88 126M92 126L93 127L92 126z"/>
<path style="fill:#ffffff; stroke:none;" d="M138 126L155 151L157 151L163 126L156 139C150.156 133.945 146.058 127.459 138 126z"/>
<path style="fill:#ecc6a9; stroke:none;" d="M141 126L142 127L141 126M174 126L175 127L174 126M200 126L201 130L202 130L200 126M125 127L126 128L125 127z"/>
<path style="fill:#ffffff; stroke:none;" d="M126 127L120 135L124 137L126 127z"/>
<path style="fill:#ecc6a9; stroke:none;" d="M138 127L138 131L139 131L138 127M143 127L144 128L143 127M175 127L176 128L175 127z"/>
<path style="fill:#e5904b; stroke:none;" d="M201 127L202 128L201 127z"/>
<path style="fill:#ecc6a9; stroke:none;" d="M206 127L206 131L207 131L206 127z"/>
<path style="fill:#e5904b; stroke:none;" d="M87.3333 128.667L87.6667 129.333L87.3333 128.667M91.3333 128.667L91.6667 129.333L91.3333 128.667M128 128L127 133L128 128z"/>
<path style="fill:#ecc6a9; stroke:none;" d="M176 128L177 129L176 128M86.3333 129.667L86.6667 130.333L86.3333 129.667M108 129L109 130L108 129M159 129L160 130L159 129M162 129L162 133L163 133L162 129z"/>
<path style="fill:#8e7367; stroke:none;" d="M167 165L168 165L169 153L170 153L172 178C176.227 174.796 176.78 167.037 177 162L183 168L184 159L185 159L186 162C189.862 158.324 190.158 154.041 189 149L185 150L183 140L179 144L177 144L174 138L172 143L169 129C152.734 133.679 163.296 155.453 167 165z"/>
<path style="fill:#ecc6a9; stroke:none;" d="M177 129L178 130L177 129z"/>
<path style="fill:#e5904b; stroke:none;" d="M202.333 129.667L202.667 130.333L202.333 129.667M206 129L207 130L206 129z"/>
<path style="fill:#ecc6a9; stroke:none;" d="M91.3333 130.667L91.6667 131.333L91.3333 130.667z"/>
<path style="fill:#8e7367; stroke:none;" d="M133 130L131 137L130 131L126 139L123 138C119.619 146.012 119.88 157.458 124.613 164.96C127.746 169.927 136.621 174.261 138 166L140 168C147.649 164.238 151.809 153.154 152 145L146 149L144 138L139 141L138 131L133 130z"/>
<path style="fill:#ecc6a9; stroke:none;" d="M147 130L148 131L147 130M185 130L186 131L185 130z"/>
<path style="fill:#e5904b; stroke:none;" d="M204.667 130.333L205.333 130.667L204.667 130.333M86.3333 131.667L86.6667 132.333L86.3333 131.667M90.3333 131.667L90.6667 132.333L90.3333 131.667z"/>
<path style="fill:#ecc6a9; stroke:none;" d="M107 131L108 132L107 131M121 131L122 132L121 131z"/>
<path style="fill:#83acd6; stroke:none;" d="M130 131L131 137L133 131L130 131M138 131L139 141L144 138L146 149C155.77 143.562 143.747 134.322 138 131z"/>
<path style="fill:#ecc6a9; stroke:none;" d="M148 131L149 132L148 131M202 131L202 132L205 132L202 131M85 132L85 135L86 135L85 132M120 132L121 133L120 132M126 132L127 133L126 132M140 132L141 133L140 132M149 132L150 133L149 132M177 132L178 133L177 132M186 132L187 133L186 132M90 133L90 136L91 136L90 133M106 133L107 134L106 133z"/>
<path style="fill:#83acd6; stroke:none;" d="M126 133L123 138L126 139L126 133z"/>
<path style="fill:#ecc6a9; stroke:none;" d="M150 133L151 134L150 133M157 133L158 134L157 133z"/>
<path style="fill:#e5904b; stroke:none;" d="M162 133L163 134L162 133z"/>
<path style="fill:#ecc6a9; stroke:none;" d="M174 133L175 134L174 133M176 133L177 134L176 133M119 134L121 136L119 134M143 134L144 135L143 134M151 134L152 135L151 134z"/>
<path style="fill:#e5904b; stroke:none;" d="M85.3333 135.667L85.6667 136.333L85.3333 135.667M89.3333 135.667L89.6667 136.333L89.3333 135.667M118 135C115.556 142.694 111.412 170.431 126 168L129 176C132.261 170.127 124.751 165.399 122.714 160C119.797 152.27 121.228 144.753 123 137L118 135z"/>
<path style="fill:#ecc6a9; stroke:none;" d="M124 135L125 136L124 135M144 135L145 136L144 135M156 135L157 136L156 135M161.333 135.667L161.667 136.333L161.333 135.667M187 135L188 136L187 135M84 136L84 139L85 139L84 136M105 136L106 137L105 136M122 136L123 137L122 136M145 136L146 137L145 136M89 137L89 141L90 141L89 137M146 137L147 138L146 137z"/>
<path style="fill:#83acd6; stroke:none;" d="M161.333 137.667L161.667 138.333L161.333 137.667z"/>
<path style="fill:#ecc6a9; stroke:none;" d="M147 138L148 139L147 138M155 138L156 139L155 138M160.333 138.667L160.667 139.333L160.333 138.667M188 138L189 139L188 138z"/>
<path style="fill:#e5904b; stroke:none;" d="M84 139L83 144L84 144L84 139M88 139L88 144L89 144L88 139z"/>
<path style="fill:#ecc6a9; stroke:none;" d="M83.3333 140.667L83.6667 141.333L83.3333 140.667M104 140L105 141L104 140z"/>
<path style="fill:#83acd6; stroke:none;" d="M160 140L159 147L160 147L160 140z"/>
<path style="fill:#ecc6a9; stroke:none;" d="M149 141L150 142L149 141M150 142L151 143L150 142M159 142L160 143L159 142M189 142L189 145L190 145L189 142z"/>
<path style="fill:#8e7367; stroke:none;" d="M107 143C103.211 151.007 102.794 156.977 107 165L109 165C111.059 161.201 112.713 159.833 117 161L115 146L114 146L112 148L107 143z"/>
<path style="fill:#ecc6a9; stroke:none;" d="M88 144L89 145L88 144M103 144L103 147L104 147L103 144z"/>
<path style="fill:#8e7367; stroke:none;" d="M115 144L116 145L115 144z"/>
<path style="fill:#ecc6a9; stroke:none;" d="M151 144L152 145L151 144z"/>
<path style="fill:#e5904b; stroke:none;" d="M88 145L88 154L99 155L100 159L101 159L104 156L100 149C94.556 154.248 90.4976 150.331 88 145z"/>
<path style="fill:#ecc6a9; stroke:none;" d="M152 145L153 146L152 145z"/>
<path style="fill:#83acd6; stroke:none;" d="M152 146L153 147L152 146z"/>
<path style="fill:#ecc6a9; stroke:none;" d="M158 146L159 147L158 146M192 146L190 151L192 148L193 148L197 152L197 151L194 146L192 146z"/>
<path style="fill:#e5904b; stroke:none;" d="M152 147L150 163L152 163L156 154L157 154C158.647 159.593 163.065 173.147 168 176C168 165.986 165.567 155.926 159 148C155.944 150.669 154.714 149.649 152 147z"/>
<path style="fill:#ecc6a9; stroke:none;" d="M153.333 147.667L153.667 148.333L153.333 147.667M100 148L102 150L102 148L100 148M158 148L159 149L158 148z"/>
<path style="fill:#e5904b; stroke:none;" d="M192 148L189 159L195 160C197.021 153.26 203.913 155.367 204.017 162.001C204.169 171.714 197.009 180.394 192 188L202 178L196 189C205.98 180.731 208.999 165.3 209 153C202.054 152.999 197.479 152.583 192 148z"/>
<path style="fill:#ecc6a9; stroke:none;" d="M89.3333 149.667L89.6667 150.333L89.3333 149.667M99.3333 149.667L99.6667 150.333L99.3333 149.667M154.333 149.667L154.667 150.333L154.333 149.667M102 150L103 151L102 150M157 150L158 151L157 150M90 151L90 152L93 152L90 151M95.6667 151.333L96.3333 151.667L95.6667 151.333M98 151L99 152L98 151M198 152L198 153L203 153L198 152z"/>
<path style="fill:#83acd6; stroke:none;" d="M169 153L167 176L167 184L166 184C163.804 175.087 164.009 161.113 155 156C152.769 165.388 146.534 174.168 137 177L134 189C133.803 184.421 133.929 178.831 130 176L130 181L129 181C127.687 174.98 124.554 168.779 118 173C116.868 168.247 113.742 151.515 109 165L107 164L106 164C118.469 207.282 177.746 198.811 189 160L186 162L185 159L184 159L183 168L177 162L172 178C171.981 171.101 172.893 158.698 169 153z"/>
<path style="fill:#ecc6a9; stroke:none;" d="M83 154L83 155L91 155L83 154z"/>
<path style="fill:#8e7367; stroke:none;" d="M156.333 154.667L156.667 155.333L156.333 154.667z"/>
<path style="fill:#ecc6a9; stroke:none;" d="M198.667 154.333L199.333 154.667L198.667 154.333M92 155L93 156L92 155M96 155L96 156L99 157L96 155M196 155L197 156L196 155M201 155L202 156L201 155M93.6667 156.333L94.3333 156.667L93.6667 156.333M102 156L103 159L104 159L104 156L102 156M195 156L195 159L196 159L195 156M202 156L203 157L202 156M154 157L152 163L150 161L149 161L153 164L154 157M158 157L161 165L162 165L158 157M203.333 157.667L203.667 158.333L203.333 157.667M99 158C100.127 160.006 100.873 160.006 102 158L99 158z"/>
<path style="fill:#83acd6; stroke:none;" d="M104 159L105 160L104 159M147 159L148 160L147 159z"/>
<path style="fill:#ecc6a9; stroke:none;" d="M148 159L147 161L148 159M189.667 159.333L190.333 159.667L189.667 159.333M204.333 159.667L204.667 160.333L204.333 159.667M104.333 160.667L104.667 161.333L104.333 160.667z"/>
<path style="fill:#ffffff; stroke:none;" d="M148 160L144 171C139.022 170.163 138.153 172.34 138 177C144.621 174.539 148.864 170.295 152 164L148 160z"/>
<path style="fill:#ecc6a9; stroke:none;" d="M191 160L195 164L195 160L191 160z"/>
<path style="fill:#83acd6; stroke:none;" d="M146 161L147 162L146 161z"/>
<path style="fill:#ecc6a9; stroke:none;" d="M188 161L189 162L188 161z"/>
<path style="fill:#83acd6; stroke:none;" d="M105 162L106 163L105 162z"/>
<path style="fill:#8e7367; stroke:none;" d="M117 162L118 173L122 170L122 169L117 162z"/>
<path style="fill:#ecc6a9; stroke:none;" d="M146 162L144 170C138.468 169.089 137.168 171.855 137 177L138 177C138.334 172.632 139.466 170.853 144 171L146 162M105 163L106 164L105 163z"/>
<path style="fill:#e5904b; stroke:none;" d="M145 163L146 164L145 163z"/>
<path style="fill:#ecc6a9; stroke:none;" d="M203 163L203 167L204 167L203 163M208 163L208 167L209 167L208 163z"/>
<path style="fill:#e5904b; stroke:none;" d="M144 165L141 169L144 170L144 165z"/>
<path style="fill:#ecc6a9; stroke:none;" d="M151 165L152 166L151 165M162 165L162 168L163 168L162 165M187 165L188 166L187 165M106 166L107 167L106 166z"/>
<path style="fill:#83acd6; stroke:none;" d="M138 166L138 170L141 169L138 166z"/>
<path style="fill:#ecc6a9; stroke:none;" d="M186 167L187 168L186 167M202 167L202 170L203 170L202 167M207 167L207 170L208 170L207 167M107 168L108 169L107 168M124 168L124 169L127 170L124 168M149 168L150 169L149 168M168 168L168 174L169 174L168 168M122 169L123 170L122 169z"/>
<path style="fill:#ffffff; stroke:none;" d="M123 169L127 174L123 169z"/>
<path style="fill:#ecc6a9; stroke:none;" d="M148 169L149 170L148 169M185 169L186 170L185 169M108 170L109 171L108 170z"/>
<path style="fill:#83acd6; stroke:none;" d="M131.667 170.333L132.333 170.667L131.667 170.333z"/>
<path style="fill:#e5904b; stroke:none;" d="M137 170L138 171L137 170z"/>
<path style="fill:#ecc6a9; stroke:none;" d="M87 173L92 183L93 183L88 173L93 172L87 173M127 171L127 175L128 175L127 171M131 171L132 176L131 176L131 173L130 173L133 177L131 171z"/>
<path style="fill:#e5904b; stroke:none;" d="M133 171L133 177L137 177L137 171L133 171z"/>
<path style="fill:#ffffff; stroke:none;" d="M169 171L168 175L169 171z"/>
<path style="fill:#ecc6a9; stroke:none;" d="M184 171L185 172L184 171M201.333 171.667L201.667 172.333L201.333 171.667M206.333 171.667L206.667 172.333L206.333 171.667z"/>
<path style="fill:#e5904b; stroke:none;" d="M88 173C91.4002 181.167 95.6893 189.738 103 195L92 178L101 187L93 172L88 173z"/>
<path style="fill:#ecc6a9; stroke:none;" d="M109 172L110 173L109 172z"/>
<path style="fill:#ffffff; stroke:none;" d="M131 172L131 176L132 176L131 172z"/>
<path style="fill:#ecc6a9; stroke:none;" d="M93.3333 173.667L93.6667 174.333L93.3333 173.667z"/>
<path style="fill:#8e7367; stroke:none;" d="M164 173L166 184L167 184L164 173z"/>
<path style="fill:#ecc6a9; stroke:none;" d="M183 173L184 174L183 173M200.333 173.667L200.667 174.333L200.333 173.667M143 174L144 175L143 174M205.333 174.667L205.667 175.333L205.333 174.667M94.3333 175.667L94.6667 176.333L94.3333 175.667M111 175L112 176L111 175z"/>
<path style="fill:#8e7367; stroke:none;" d="M128 175L129 181L130 181L128 175z"/>
<path style="fill:#ecc6a9; stroke:none;" d="M168.667 175.333L169.333 175.667L168.667 175.333M199.333 175.667L199.667 176.333L199.333 175.667M139 176L140 177L139 176M204.333 176.667L204.667 177.333L204.333 176.667M95.3333 177.667L95.6667 178.333L95.3333 177.667z"/>
<path style="fill:#8e7367; stroke:none;" d="M133 177L134 189C137.688 186.193 136.997 181.283 137 177L133 177z"/>
<path style="fill:#ecc6a9; stroke:none;" d="M198.333 177.667L198.667 178.333L198.333 177.667z"/>
<path style="fill:#8e7367; stroke:none;" d="M92 178C105.686 224.508 188.305 224.541 202 178C194.375 182.169 189.247 191.861 182 197.241C162.331 211.84 135.639 212.82 115 199.452C106.226 193.769 100.856 182.772 92 178z"/>
<path style="fill:#ecc6a9; stroke:none;" d="M179 178L180 179L179 178M203.333 178.667L203.667 179.333L203.333 178.667M96.3333 179.667L96.6667 180.333L96.3333 179.667M178 179L179 180L178 179M197.333 179.667L197.667 180.333L197.333 179.667M115 180L116 181L115 180M202.333 180.667L202.667 181.333L202.333 180.667M97 181L98 182L97 181M116 181L117 182L116 181M196 181L197 182L196 181M98 182L99 183L98 182M117 182L118 183L117 182M175 182L176 183L175 182M195.333 182.667L195.667 183.333L195.333 182.667M201 182L202 183L201 182M174 183L175 184L174 183M93 184L94 185L93 184M99 184L100 185L99 184M194 184L195 185L194 184M200 184L201 185L200 184M94 185L95 186L94 185M100 185L101 186L100 185M121 185L122 186L121 185M171 185L172 186L171 185M193 185L194 186L193 185M199 185L200 186L199 185M170 186L171 187L170 186M192 186L193 187L192 186M95 187L96 188L95 187M101 187L102 188L101 187M124 187L125 188L124 187M168 187L169 188L168 187M198 187L199 188L198 187M96 188L97 189L96 188M102 188L103 189L102 188M126 188L127 189L126 188M166 188L167 189L166 188M191 188L189 191L191 188M197 188L198 189L197 188z"/>
<path style="fill:#e5904b; stroke:none;" d="M103 189L104 190L103 189z"/>
<path style="fill:#ecc6a9; stroke:none;" d="M128 189L129 190L128 189M164 189L165 190L164 189z"/>
<path style="fill:#e5904b; stroke:none;" d="M191 189L192 190L191 189z"/>
<path style="fill:#ecc6a9; stroke:none;" d="M196 189L197 190L196 189M97 190L98 191L97 190z"/>
<path style="fill:#e5904b; stroke:none;" d="M104 190L105 191L104 190z"/>
<path style="fill:#ecc6a9; stroke:none;" d="M130 190L131 191L130 190M162 190L163 191L162 190z"/>
<path style="fill:#e5904b; stroke:none;" d="M190 190L191 191L190 190M195 190L187 199L195 190z"/>
<path style="fill:#ecc6a9; stroke:none;" d="M98 191L99 192L98 191M105 191L106 192L105 191M133 191L134 192L133 191M159 191L160 192L159 191M188 191L189 192L188 191M195 191L196 192L195 191M99 192L100 193L99 192M106 192L107 193L106 192M136.667 192.333L137.333 192.667L136.667 192.333M156 192L157 193L156 192M187 192L188 193L187 192M194 192L195 193L194 192M100 193L101 194L100 193M107 193L108 194L107 193M141.667 193.333L142.333 193.667L141.667 193.333M150.667 193.333L151.333 193.667L150.667 193.333z"/>
<path style="fill:#e5904b; stroke:none;" d="M186 193L187 194L186 193z"/>
<path style="fill:#ecc6a9; stroke:none;" d="M193 193L194 194L193 193M101 194L102 195L101 194z"/>
<path style="fill:#e5904b; stroke:none;" d="M108 194L111 197L108 194z"/>
<path style="fill:#ecc6a9; stroke:none;" d="M109 194L110 195L109 194M184 194L182 197L184 194z"/>
<path style="fill:#e5904b; stroke:none;" d="M185 194L186 195L185 194z"/>
<path style="fill:#ecc6a9; stroke:none;" d="M192 194L193 195L192 194M102 195L103 196L102 195M110 195L111 196L110 195z"/>
<path style="fill:#e5904b; stroke:none;" d="M184 195L185 196L184 195z"/>
<path style="fill:#ecc6a9; stroke:none;" d="M191 195L192 196L191 195M103 196L106 199L103 196z"/>
<path style="fill:#e5904b; stroke:none;" d="M104 196L105 197L104 196z"/>
<path style="fill:#ecc6a9; stroke:none;" d="M111 196L112 197L111 196z"/>
<path style="fill:#e5904b; stroke:none;" d="M183 196L184 197L183 196z"/>
<path style="fill:#ecc6a9; stroke:none;" d="M190 196L191 197L190 196z"/>
<path style="fill:#e5904b; stroke:none;" d="M105 197L106 198L105 197z"/>
<path style="fill:#ecc6a9; stroke:none;" d="M112 197L113 198L112 197M180 197L179 199L180 197z"/>
<path style="fill:#e5904b; stroke:none;" d="M181 197L182 198L181 197z"/>
<path style="fill:#ecc6a9; stroke:none;" d="M189 197L190 198L189 197z"/>
<path style="fill:#e5904b; stroke:none;" d="M106 198L107 199L106 198M113 198L115 200L113 198z"/>
<path style="fill:#ecc6a9; stroke:none;" d="M114 198L115 199L114 198z"/>
<path style="fill:#e5904b; stroke:none;" d="M180 198L181 199L180 198z"/>
<path style="fill:#ecc6a9; stroke:none;" d="M188 198L189 199L188 198M107 199L108 200L107 199M115 199L115 200L118 201L115 199M176 201L179 200L176 201z"/>
<path style="fill:#e5904b; stroke:none;" d="M186 199L187 200L186 199z"/>
<path style="fill:#ecc6a9; stroke:none;" d="M108 200L110 202L108 200z"/>
<path style="fill:#e5904b; stroke:none;" d="M109 200L110 201L109 200M116 200L117 201L116 200M177 200L178 201L177 200M184 200L183 202L184 200z"/>
<path style="fill:#ecc6a9; stroke:none;" d="M185 200L186 201L185 200z"/>
<path style="fill:#e5904b; stroke:none;" d="M110 201L111 202L110 201M118 201L119 202L118 201z"/>
<path style="fill:#ecc6a9; stroke:none;" d="M119 201L120 202L119 201M174 201L172 202L172 203L174 201z"/>
<path style="fill:#e5904b; stroke:none;" d="M175 201L176 202L175 201z"/>
<path style="fill:#ecc6a9; stroke:none;" d="M184 201L185 202L184 201M111 202L112 203L111 202z"/>
<path style="fill:#e5904b; stroke:none;" d="M120 202L121 203L120 202z"/>
<path style="fill:#ecc6a9; stroke:none;" d="M121 202L122 203L121 202z"/>
<path style="fill:#e5904b; stroke:none;" d="M174 202L175 203L174 202M181 202L180 204L181 202z"/>
<path style="fill:#ecc6a9; stroke:none;" d="M182 202L183 203L182 202M112 203L113 204L112 203z"/>
<path style="fill:#e5904b; stroke:none;" d="M113 203L114 204L113 203M122 203L123 204L122 203z"/>
<path style="fill:#ecc6a9; stroke:none;" d="M123 203L123 204L127 205L127 204L123 203M170 203L171 204L170 203z"/>
<path style="fill:#e5904b; stroke:none;" d="M171 203L172 204L171 203z"/>
<path style="fill:#ecc6a9; stroke:none;" d="M181 203L182 204L181 203M114 204L117 206L117 205L114 204z"/>
<path style="fill:#e5904b; stroke:none;" d="M115 204L116 205L115 204M124 204L125 205L124 204z"/>
<path style="fill:#ecc6a9; stroke:none;" d="M167.667 204.333L168.333 204.667L167.667 204.333z"/>
<path style="fill:#e5904b; stroke:none;" d="M169 204L170 205L169 204M178 204L179 205L178 204z"/>
<path style="fill:#ecc6a9; stroke:none;" d="M179 204L180 205L179 204z"/>
<path style="fill:#e5904b; stroke:none;" d="M127 205L128 206L127 205z"/>
<path style="fill:#ecc6a9; stroke:none;" d="M128.667 205.333L129.333 205.667L128.667 205.333M164.667 205.333L165.333 205.667L164.667 205.333z"/>
<path style="fill:#e5904b; stroke:none;" d="M166.667 205.333L167.333 205.667L166.667 205.333z"/>
<path style="fill:#ecc6a9; stroke:none;" d="M177 205L178 206L177 205M117 206L118 207L117 206z"/>
<path style="fill:#e5904b; stroke:none;" d="M118 206L119 207L118 206M129.667 206.333L130.333 206.667L129.667 206.333z"/>
<path style="fill:#ecc6a9; stroke:none;" d="M131 206L131 207L134 207L131 206M160 206L160 207L163 207L160 206z"/>
<path style="fill:#e5904b; stroke:none;" d="M163.667 206.333L164.333 206.667L163.667 206.333M175 206L176 207L175 206z"/>
<path style="fill:#ecc6a9; stroke:none;" d="M176 206L177 207L176 206M119 207L120 208L119 207z"/>
<path style="fill:#e5904b; stroke:none;" d="M120 207L121 208L120 207M134 207L135 208L134 207z"/>
<path style="fill:#ecc6a9; stroke:none;" d="M135 207L135 208L140 208L135 207M155 207L155 208L159 208L155 207z"/>
<path style="fill:#e5904b; stroke:none;" d="M159.667 207.333L160.333 207.667L159.667 207.333M173 207L174 208L173 207z"/>
<path style="fill:#ecc6a9; stroke:none;" d="M174 207L175 208L174 207M121.667 208.333L122.333 208.667L121.667 208.333z"/>
<path style="fill:#e5904b; stroke:none;" d="M123 208L124 209L123 208M138 208L138 209L143 209L138 208z"/>
<path style="fill:#ecc6a9; stroke:none;" d="M143 208L143 209L153 209L143 208z"/>
<path style="fill:#e5904b; stroke:none;" d="M153.667 208.333L154.333 208.667L153.667 208.333M170 208L171 209L170 208z"/>
<path style="fill:#ecc6a9; stroke:none;" d="M171.667 208.333L172.333 208.667L171.667 208.333M124 209L125 210L124 209z"/>
<path style="fill:#e5904b; stroke:none;" d="M125 209L126 210L125 209M168 209L169 210L168 209z"/>
<path style="fill:#ecc6a9; stroke:none;" d="M169.667 209.333L170.333 209.667L169.667 209.333M126.667 210.333L127.333 210.667L126.667 210.333z"/>
<path style="fill:#e5904b; stroke:none;" d="M128.667 210.333L129.333 210.667L128.667 210.333M164.667 210.333L165.333 210.667L164.667 210.333z"/>
<path style="fill:#ecc6a9; stroke:none;" d="M166.667 210.333L167.333 210.667L166.667 210.333M129 211L129 212L132 212L129 211z"/>
<path style="fill:#e5904b; stroke:none;" d="M132.667 211.333L133.333 211.667L132.667 211.333M160.667 211.333L161.333 211.667L160.667 211.333z"/>
<path style="fill:#ecc6a9; stroke:none;" d="M162 211L162 212L165 212L162 211M133.667 212.333L134.333 212.667L133.667 212.333z"/>
<path style="fill:#e5904b; stroke:none;" d="M135 212L136 213L135 212M158 212L159 213L158 212z"/>
<path style="fill:#ecc6a9; stroke:none;" d="M159.667 212.333L160.333 212.667L159.667 212.333z"/>
<path style="fill:#e5904b; stroke:none;" d="M104 218L105 219L104 218M112 218L112 226L117 226L117 225L113 225L112 218z"/>
<path style="fill:#ecc6a9; stroke:none;" d="M121 218L123 226L121 218z"/>
<path style="fill:#e5904b; stroke:none;" d="M122 218L122 219L126 219L122 218z"/>
<path style="fill:#ecc6a9; stroke:none;" d="M126 218L126 223L127 223L126 218z"/>
<path style="fill:#e5904b; stroke:none;" d="M131 218L131 226L132 226L132 222L137 222L137 226L138 226L138 218L137 218L137 221L131 218M145 218L147 220L145 218z"/>
<path style="fill:#ecc6a9; stroke:none;" d="M146 218L147 219L146 218M152.667 218.333L153.333 218.667L152.667 218.333M156.667 218.333L157.333 218.667L156.667 218.333M159.667 218.333L160.333 218.667L159.667 218.333M163.667 218.333L164.333 218.667L163.667 218.333M170.667 218.333L171.333 218.667L170.667 218.333z"/>
<path style="fill:#e5904b; stroke:none;" d="M178 218L179 219L178 218z"/>
<path style="fill:#ecc6a9; stroke:none;" d="M184.667 218.333L185.333 218.667L184.667 218.333z"/>
<path style="fill:#e5904b; stroke:none;" d="M189 220L194 219L189 220z"/>
<path style="fill:#ecc6a9; stroke:none;" d="M194 218L195 219L194 218M103 219L103 220L106 220L103 219z"/>
<path style="fill:#ffffff; stroke:none;" d="M123 219L123 222L126 222L126 219L123 219z"/>
<path style="fill:#ecc6a9; stroke:none;" d="M144 220L144 221L148 221L144 220z"/>
<path style="fill:#e5904b; stroke:none;" d="M153 219L154 220L153 219M157 219L158 222L159 222L160 219L157 219M163 219L164 220L163 219M170.667 219.333L171.333 219.667L170.667 219.333z"/>
<path style="fill:#ecc6a9; stroke:none;" d="M178 219L179 220L178 219z"/>
<path style="fill:#e5904b; stroke:none;" d="M184 219L185 220L184 219M103 220L104 221L103 220z"/>
<path style="fill:#ffffff; stroke:none;" d="M104 220L103 223L106 223L104 220z"/>
<path style="fill:#e5904b; stroke:none;" d="M105 220L106 221L105 220z"/>
<path style="fill:#ffffff; stroke:none;" d="M145 220L147 223L145 220z"/>
<path style="fill:#ecc6a9; stroke:none;" d="M153.667 220.333L154.333 220.667L153.667 220.333M157 220L158 221L157 220M159 220L160 221L159 220M162.667 220.333L163.333 220.667L162.667 220.333M169 220L169 221L173 221L169 220M179 220L180 221L179 220M183.667 220.333L184.333 220.667L183.667 220.333M189 220L190 221L189 220M102.667 221.333L103.333 221.667L102.667 221.333M105.667 221.333L106.333 221.667L105.667 221.333z"/>
<path style="fill:#e5904b; stroke:none;" d="M144 221L145 222L144 221M147 221L148 225L149 225L147 221M154 221L155 222L154 221M162 221L163 222L162 221M169 221L170 222L169 221z"/>
<path style="fill:#ffffff; stroke:none;" d="M170 221L170 223L172 223L172 221L170 221z"/>
<path style="fill:#e5904b; stroke:none;" d="M172 221L173 222L172 221M179 221L180 222L179 221M183 221L184 222L183 221M189 221L189 226L195 226L195 225L190 225L191 221L189 221z"/>
<path style="fill:#ecc6a9; stroke:none;" d="M191 221L191 222L194 222L191 221z"/>
<path style="fill:#e5904b; stroke:none;" d="M102.333 222.667L102.667 223.333L102.333 222.667M106 222L107 226L108 226L106 222M122 222L122 223L126 223L122 222z"/>
<path style="fill:#ecc6a9; stroke:none;" d="M143 222L142 224L142 225L147 224L147 223L143 222M154.667 222.333L155.333 222.667L154.667 222.333M157 222L157 223L160 223L157 222M162 222L163 223L162 222M168 222L168 223L174 223L174 222L168 222M179.667 222.333L180.333 222.667L179.667 222.333M182.667 222.333L183.333 222.667L182.667 222.333M101 223L101 225L103 225L101 223M103 223L103 224L106 224L103 223M107 223L108 224L107 223z"/>
<path style="fill:#e5904b; stroke:none;" d="M143 223L144 224L143 223z"/>
<path style="fill:#ecc6a9; stroke:none;" d="M148 223L149 224L148 223z"/>
<path style="fill:#e5904b; stroke:none;" d="M155 223L156 224L155 223M157 223L158 224L157 223M159 223L160 224L159 223z"/>
<path style="fill:#ecc6a9; stroke:none;" d="M159 224L159 225L162 226L162 223L159 224z"/>
<path style="fill:#e5904b; stroke:none;" d="M168.333 223.667L168.667 224.333L168.333 223.667M173 223L175 226L173 223M180 223L181 224L180 223M182 223L183 224L182 223z"/>
<path style="fill:#ecc6a9; stroke:none;" d="M155 224L155 225L158 225L155 224z"/>
<path style="fill:#e5904b; stroke:none;" d="M161 224L162 225L161 224z"/>
<path style="fill:#ecc6a9; stroke:none;" d="M174 224L175 225L174 224M180 224L180 225L183 225L180 224z"/>
<path style="fill:#e5904b; stroke:none;" d="M101 225L102 226L101 225z"/>
<path style="fill:#ecc6a9; stroke:none;" d="M117 225L118 226L117 225z"/>
<path style="fill:#e5904b; stroke:none;" d="M142 225L143 226L142 225z"/>
<path style="fill:#ecc6a9; stroke:none;" d="M148.667 225.333L149.333 225.667L148.667 225.333z"/>
<path style="fill:#e5904b; stroke:none;" d="M156 225L157 226L156 225M160 225L161 226L160 225z"/>
<path style="fill:#ecc6a9; stroke:none;" d="M167.667 225.333L168.333 225.667L167.667 225.333z"/>
<path style="fill:#e5904b; stroke:none;" d="M181 225L182 226L181 225z"/>
</svg>
